<svg xmlns="http://www.w3.org/2000/svg" viewBox="0 0 1440 320"><path fill="#e7008a" fill-opacity="1" d="M0,160L0,160L68.6,160L68.6,256L137.1,256L137.1,256L205.7,256L205.7,192L274.3,192L274.3,64L342.9,64L342.9,288L411.4,288L411.4,224L480,224L480,128L548.6,128L548.6,288L617.1,288L617.1,192L685.7,192L685.7,224L754.3,224L754.3,288L822.9,288L822.9,96L891.4,96L891.4,192L960,192L960,288L1028.6,288L1028.6,256L1097.1,256L1097.1,160L1165.7,160L1165.7,256L1234.3,256L1234.3,32L1302.9,32L1302.9,96L1371.4,96L1371.4,160L1440,160L1440,0L1371.4,0L1371.4,0L1302.9,0L1302.9,0L1234.3,0L1234.3,0L1165.7,0L1165.7,0L1097.1,0L1097.1,0L1028.6,0L1028.6,0L960,0L960,0L891.4,0L891.4,0L822.9,0L822.9,0L754.3,0L754.3,0L685.7,0L685.7,0L617.1,0L617.1,0L548.6,0L548.6,0L480,0L480,0L411.4,0L411.4,0L342.9,0L342.9,0L274.3,0L274.3,0L205.7,0L205.7,0L137.1,0L137.1,0L68.6,0L68.6,0L0,0L0,0Z"></path></svg>