<svg id="wave" style="transform:rotate(180deg); transition: 0.3s" viewBox="0 0 1440 350" version="1.1" xmlns="http://www.w3.org/2000/svg"><defs><linearGradient id="sw-gradient-0" x1="0" x2="0" y1="1" y2="0"><stop stop-color="rgba(10.289, 0, 205.338, 1)" offset="0%"></stop><stop stop-color="rgba(164.355, 21.864, 77.674, 1)" offset="100%"></stop></linearGradient></defs><path style="transform:translate(0, 0px); opacity:1" fill="url(#sw-gradient-0)" d="M0,245L240,0L480,70L720,175L960,210L1200,280L1440,0L1680,0L1920,70L2160,35L2400,70L2640,175L2880,315L3120,70L3360,210L3600,245L3840,175L4080,35L4320,0L4560,210L4800,315L5040,210L5280,280L5520,140L5760,140L5760,350L5520,350L5280,350L5040,350L4800,350L4560,350L4320,350L4080,350L3840,350L3600,350L3360,350L3120,350L2880,350L2640,350L2400,350L2160,350L1920,350L1680,350L1440,350L1200,350L960,350L720,350L480,350L240,350L0,350Z"></path><defs><linearGradient id="sw-gradient-1" x1="0" x2="0" y1="1" y2="0"><stop stop-color="rgba(122.237, 14.6, 139.311, 1)" offset="0%"></stop><stop stop-color="rgba(11, 147.55, 255, 1)" offset="100%"></stop></linearGradient></defs><path style="transform:translate(0, 50px); opacity:0.9" fill="url(#sw-gradient-1)" d="M0,70L240,210L480,35L720,70L960,140L1200,35L1440,245L1680,210L1920,245L2160,105L2400,315L2640,0L2880,210L3120,175L3360,105L3600,280L3840,175L4080,140L4320,0L4560,245L4800,105L5040,210L5280,0L5520,175L5760,210L5760,350L5520,350L5280,350L5040,350L4800,350L4560,350L4320,350L4080,350L3840,350L3600,350L3360,350L3120,350L2880,350L2640,350L2400,350L2160,350L1920,350L1680,350L1440,350L1200,350L960,350L720,350L480,350L240,350L0,350Z"></path></svg>