<svg id="wave" style="transform:rotate(180deg); transition: 0.3s" viewBox="0 0 1440 350" version="1.1" xmlns="http://www.w3.org/2000/svg"><defs><linearGradient id="sw-gradient-0" x1="0" x2="0" y1="1" y2="0"><stop stop-color="rgba(10.289, 0, 205.338, 1)" offset="0%"></stop><stop stop-color="rgba(164.355, 21.864, 77.674, 1)" offset="100%"></stop></linearGradient></defs><path style="transform:translate(0, 0px); opacity:1" fill="url(#sw-gradient-0)" d="M0,245L1440,105L2880,175L4320,140L5760,210L7200,35L8640,280L10080,280L11520,70L12960,0L14400,70L15840,35L17280,105L18720,175L20160,280L21600,315L23040,315L24480,0L25920,0L27360,245L28800,140L30240,35L31680,105L33120,280L34560,70L34560,350L33120,350L31680,350L30240,350L28800,350L27360,350L25920,350L24480,350L23040,350L21600,350L20160,350L18720,350L17280,350L15840,350L14400,350L12960,350L11520,350L10080,350L8640,350L7200,350L5760,350L4320,350L2880,350L1440,350L0,350Z"></path><defs><linearGradient id="sw-gradient-1" x1="0" x2="0" y1="1" y2="0"><stop stop-color="rgba(122.237, 14.6, 139.311, 1)" offset="0%"></stop><stop stop-color="rgba(11, 147.55, 255, 1)" offset="100%"></stop></linearGradient></defs><path style="transform:translate(0, 50px); opacity:0.9" fill="url(#sw-gradient-1)" d="M0,0L1440,175L2880,245L4320,280L5760,245L7200,315L8640,35L10080,245L11520,35L12960,70L14400,280L15840,210L17280,210L18720,105L20160,0L21600,210L23040,175L24480,280L25920,210L27360,245L28800,105L30240,315L31680,210L33120,280L34560,280L34560,350L33120,350L31680,350L30240,350L28800,350L27360,350L25920,350L24480,350L23040,350L21600,350L20160,350L18720,350L17280,350L15840,350L14400,350L12960,350L11520,350L10080,350L8640,350L7200,350L5760,350L4320,350L2880,350L1440,350L0,350Z"></path></svg>