<svg id="wave" style="transform:rotate(0deg); transition: 0.3s" viewBox="0 0 1440 350" version="1.1" xmlns="http://www.w3.org/2000/svg"><defs><linearGradient id="sw-gradient-0" x1="0" x2="0" y1="1" y2="0"><stop stop-color="rgba(10.289, 0, 205.338, 1)" offset="0%"></stop><stop stop-color="rgba(164.355, 21.864, 77.674, 1)" offset="100%"></stop></linearGradient></defs><path style="transform:translate(0, 0px); opacity:1" fill="url(#sw-gradient-0)" d="M0,245L1440,0L2880,70L4320,175L5760,210L7200,280L8640,0L10080,0L11520,70L12960,35L14400,70L15840,175L17280,315L18720,70L20160,210L21600,245L23040,175L24480,35L25920,0L27360,210L28800,315L30240,210L31680,280L33120,140L34560,140L34560,350L33120,350L31680,350L30240,350L28800,350L27360,350L25920,350L24480,350L23040,350L21600,350L20160,350L18720,350L17280,350L15840,350L14400,350L12960,350L11520,350L10080,350L8640,350L7200,350L5760,350L4320,350L2880,350L1440,350L0,350Z"></path><defs><linearGradient id="sw-gradient-1" x1="0" x2="0" y1="1" y2="0"><stop stop-color="rgba(122.237, 14.6, 139.311, 1)" offset="0%"></stop><stop stop-color="rgba(11, 147.55, 255, 1)" offset="100%"></stop></linearGradient></defs><path style="transform:translate(0, 50px); opacity:0.9" fill="url(#sw-gradient-1)" d="M0,70L1440,210L2880,35L4320,70L5760,140L7200,35L8640,245L10080,210L11520,245L12960,105L14400,315L15840,0L17280,210L18720,175L20160,105L21600,280L23040,175L24480,140L25920,0L27360,245L28800,105L30240,210L31680,0L33120,175L34560,210L34560,350L33120,350L31680,350L30240,350L28800,350L27360,350L25920,350L24480,350L23040,350L21600,350L20160,350L18720,350L17280,350L15840,350L14400,350L12960,350L11520,350L10080,350L8640,350L7200,350L5760,350L4320,350L2880,350L1440,350L0,350Z"></path></svg>