<svg xmlns="http://www.w3.org/2000/svg" viewBox="0 0 1440 320"><path fill="#e7008a" fill-opacity="1" d="M0,160L0,160L68.6,160L68.6,256L137.1,256L137.1,256L205.7,256L205.7,192L274.3,192L274.3,64L342.9,64L342.9,288L411.4,288L411.4,224L480,224L480,128L548.6,128L548.6,288L617.1,288L617.1,192L685.7,192L685.7,224L754.3,224L754.3,288L822.9,288L822.9,96L891.4,96L891.4,192L960,192L960,288L1028.6,288L1028.6,256L1097.1,256L1097.1,160L1165.7,160L1165.7,256L1234.3,256L1234.3,32L1302.9,32L1302.9,96L1371.4,96L1371.4,160L1440,160L1440,320L1371.4,320L1371.4,320L1302.9,320L1302.9,320L1234.3,320L1234.3,320L1165.7,320L1165.7,320L1097.1,320L1097.1,320L1028.6,320L1028.6,320L960,320L960,320L891.4,320L891.4,320L822.9,320L822.9,320L754.3,320L754.3,320L685.7,320L685.7,320L617.1,320L617.1,320L548.6,320L548.6,320L480,320L480,320L411.4,320L411.4,320L342.9,320L342.9,320L274.3,320L274.3,320L205.7,320L205.7,320L137.1,320L137.1,320L68.6,320L68.6,320L0,320L0,320Z"></path></svg>